<svg xmlns="http://www.w3.org/2000/svg" width="22" height="22" viewBox="0 0 22 22">
  <defs>
    <style>
      .cls-1 {
        fill: #63757f;
      }
    </style>
  </defs>
  <g id="careers" transform="translate(-1179.395 -144.791)">
    <path id="Icon_metro-suitcase" data-name="Icon metro-suitcase" class="cls-1" d="M24.869,27.784H6.128a1.7,1.7,0,0,1-1.63-1.76V15.464a39.715,39.715,0,0,0,8.148,3.33v1.07a.849.849,0,0,0,.815.88h4.074a.849.849,0,0,0,.815-.88v-1.07a39.738,39.738,0,0,0,8.148-3.33v10.56A1.7,1.7,0,0,1,24.869,27.784Zm-8.148-10.56a.849.849,0,0,1,.815.88v.88a.849.849,0,0,1-.815.88H14.277a.849.849,0,0,1-.815-.88V18.1a.849.849,0,0,1,.815-.88Zm1.63,0a.849.849,0,0,0-.815-.88H13.462a.849.849,0,0,0-.815.88v.788A39.133,39.133,0,0,1,4.5,14.584v-3.52A1.7,1.7,0,0,1,6.128,9.3h4.889V7.544a1.7,1.7,0,0,1,1.63-1.76h5.7a1.7,1.7,0,0,1,1.63,1.76V9.3h4.889a1.7,1.7,0,0,1,1.63,1.76v3.52a39.155,39.155,0,0,1-8.148,3.428v-.788Zm0-8.8a.849.849,0,0,0-.815-.88H13.462a.849.849,0,0,0-.815.88V9.3h5.7Z" transform="translate(1174.896 139.007)"/>
  </g>
</svg>
