<svg xmlns="http://www.w3.org/2000/svg" width="24" height="24" viewBox="0 0 24 24">
  <defs>
    <style>
      .cls-1 {
        fill: #63757f;
        stroke: #63757f;
      }

      .cls-2 {
        fill: #fff;
      }

      .cls-3 {
        stroke: none;
      }

      .cls-4 {
        fill: none;
      }
    </style>
  </defs>
  <g id="directory" transform="translate(-0.297 0.01)">
    <g id="Ellipse_12" data-name="Ellipse 12" class="cls-1" transform="translate(0.297 -0.01)">
      <circle class="cls-3" cx="12" cy="12" r="12"/>
      <circle class="cls-4" cx="12" cy="12" r="11.5"/>
    </g>
    <path id="Icon_metro-files-empty" data-name="Icon metro-files-empty" class="cls-2" d="M17.36,7.307a13.656,13.656,0,0,0-1.313-1.5,13.661,13.661,0,0,0-1.5-1.313,2.4,2.4,0,0,0-1.37-.636H7.632A1.206,1.206,0,0,0,6.427,5.061V16.147a1.206,1.206,0,0,0,1.205,1.205H16.79A1.206,1.206,0,0,0,18,16.147V8.676a2.4,2.4,0,0,0-.636-1.37Zm-1.995-.82a13.148,13.148,0,0,1,1.093,1.226H14.139V5.393a13.138,13.138,0,0,1,1.226,1.093Zm1.666,9.661a.244.244,0,0,1-.241.241H7.632a.244.244,0,0,1-.241-.241V5.061a.244.244,0,0,1,.241-.241h5.543V8.194a.482.482,0,0,0,.482.482h3.374ZM12.617,2.564a2.4,2.4,0,0,0-1.37-.636H5.7A1.206,1.206,0,0,0,4.5,3.133V14.219A1.207,1.207,0,0,0,5.463,15.4V3.133A.244.244,0,0,1,5.7,2.892h7.334c-.145-.119-.287-.23-.421-.328Z" transform="translate(1.005 2.148)"/>
  </g>
</svg>
