<svg id="contact" xmlns="http://www.w3.org/2000/svg" width="22" height="18" viewBox="0 0 22 18">
  <defs>
    <style>
      .cls-1 {
        fill: #63757f;
      }
    </style>
  </defs>
  <path id="Icon_awesome-envelope" data-name="Icon awesome-envelope" class="cls-1" d="M21.583,10.444a.257.257,0,0,1,.417.22V20.25a2.163,2.163,0,0,1-2.062,2.25H2.063A2.163,2.163,0,0,1,0,20.25V10.669a.256.256,0,0,1,.417-.22c.963.816,2.239,1.852,6.621,5.325C7.945,16.5,9.475,18.014,11,18c1.534.014,3.094-1.538,3.966-2.231C19.349,12.3,20.621,11.259,21.583,10.444ZM11,16.5c1,.019,2.432-1.369,3.154-1.941,5.7-4.514,6.136-4.908,7.451-6.033a1.161,1.161,0,0,0,.4-.886V6.75A2.163,2.163,0,0,0,19.938,4.5H2.063A2.163,2.163,0,0,0,0,6.75v.891a1.169,1.169,0,0,0,.4.886c1.315,1.12,1.749,1.519,7.451,6.033C8.568,15.131,10,16.519,11,16.5Z" transform="translate(0 -4.5)"/>
</svg>
