<svg xmlns="http://www.w3.org/2000/svg" width="22" height="20" viewBox="0 0 22 20">
  <defs>
    <style>
      .cls-1 {
        fill: #63757f;
      }
    </style>
  </defs>
  <g id="newsroom" transform="translate(-542 -453.01)">
    <path id="Icon_ionic-ios-paper" data-name="Icon ionic-ios-paper" class="cls-1" d="M7.394,4.913V20.394a.711.711,0,0,1-.74.673h0a.711.711,0,0,1-.74-.673V6.452H5.067A1.619,1.619,0,0,0,3.375,7.99V21.837a1.619,1.619,0,0,0,1.692,1.538H23.741a1.566,1.566,0,0,0,1.634-1.486V4.913a1.619,1.619,0,0,0-1.692-1.538l-14.7.1A1.452,1.452,0,0,0,7.394,4.913Zm3.49,1.538h4.442a.711.711,0,0,1,.74.673h0a.711.711,0,0,1-.74.673H10.885a.711.711,0,0,1-.74-.673h0A.711.711,0,0,1,10.885,6.452Zm0,7.692h7.827a.711.711,0,0,1,.74.673h0a.711.711,0,0,1-.74.673H10.885a.711.711,0,0,1-.74-.673h0A.711.711,0,0,1,10.885,14.144ZM21.25,19.337H10.885a.711.711,0,0,1-.74-.673h0a.711.711,0,0,1,.74-.673H21.25a.711.711,0,0,1,.74.673h0A.711.711,0,0,1,21.25,19.337Zm0-7.692H10.885a.711.711,0,0,1-.74-.673h0a.711.711,0,0,1,.74-.673H21.25a.711.711,0,0,1,.74.673h0A.711.711,0,0,1,21.25,11.644Z" transform="translate(538.625 449.635)"/>
  </g>
</svg>
