<svg xmlns="http://www.w3.org/2000/svg" width="32" height="32" viewBox="0 0 32 32"><g transform="translate(-1509 -534)"><path d="M16.563.563a16,16,0,1,0,16,16A16,16,0,0,0,16.563.563Z" transform="translate(1508.438 533.438)" fill="#63757f"/><g transform="translate(1.848 -1)"><g transform="translate(1519.936 545.438)"><path d="M4.5,19H16.435" transform="translate(-4.5 -13.469)" fill="none" stroke="#fff" stroke-linecap="round" stroke-linejoin="round" stroke-width="2"/><path d="M4.5,9H16.564" transform="translate(-4.5 -9)" fill="none" stroke="#fff" stroke-linecap="round" stroke-linejoin="round" stroke-width="2"/><path d="M4.5,29H16.435" transform="translate(-4.5 -17.938)" fill="none" stroke="#fff" stroke-linecap="round" stroke-linejoin="round" stroke-width="2"/></g><g transform="translate(1514 544)"><path d="M2.063.563a1.5,1.5,0,1,0,1.5,1.5A1.5,1.5,0,0,0,2.063.563Z" transform="translate(-0.563 -0.563)" fill="#fff"/></g><g transform="translate(1514 549.5)"><path d="M2.063.563a1.5,1.5,0,1,0,1.5,1.5A1.5,1.5,0,0,0,2.063.563Z" transform="translate(-0.563 -0.563)" fill="#fff"/></g><g transform="translate(1514 555)"><path d="M2.063.563a1.5,1.5,0,1,0,1.5,1.5A1.5,1.5,0,0,0,2.063.563Z" transform="translate(-0.563 -0.563)" fill="#fff"/></g></g></g></svg>